<svg xmlns="http://www.w3.org/2000/svg" width="751" height="189">
         <defs>
            <style type="text/css">
    @namespace "http://www.w3.org/2000/svg";
    .line                 {fill: none; stroke: #332900; stroke-width: 1;}
    .bold-line            {stroke: #141000; shape-rendering: crispEdges; stroke-width: 2;}
    .thin-line            {stroke: #0F1400; shape-rendering: crispEdges}
    .filled               {fill: #332900; stroke: none;}
    text.terminal         {font-family: Verdana, Sans-serif;
                            font-size: 12px;
                            fill: #141000;
                            font-weight: bold;
                          }
    text.nonterminal      {font-family: Verdana, Sans-serif;
                            font-size: 12px;
                            fill: #141400;
                            font-weight: normal;
                          }
    text.regexp           {font-family: Verdana, Sans-serif;
                            font-size: 12px;
                            fill: #0F1400;
                            font-weight: normal;
                          }
    rect, circle, polygon {fill: #332900; stroke: #332900;}
    rect.terminal         {fill: #FFDB4D; stroke: #332900; stroke-width: 1;}
    rect.nonterminal      {fill: #F9FF4D; stroke: #332900; stroke-width: 1;}
    rect.text             {fill: none; stroke: none;}
    polygon.regexp        {fill: #D0FF4D; stroke: #332900; stroke-width: 1;}
  </style>
         </defs>
         <polygon points="9,17 1,13 1,21" />
         <polygon points="17,17 9,13 9,21" />
         <rect x="51" y="3" width="68" height="32" rx="10" />
         <rect class="terminal" x="49" y="1" width="68" height="32" rx="10" />
         <text class="terminal" x="59" y="21">j.exists</text>
         <rect x="139" y="3" width="26" height="32" rx="10" />
         <rect class="terminal" x="137" y="1" width="26" height="32" rx="10" />
         <text class="terminal" x="147" y="21">(</text><a xmlns:xlink="http://www.w3.org/1999/xlink" xlink:title="template" xlink:href="#template">
            <rect x="185" y="3" width="76" height="32" />
            <rect class="nonterminal" x="183" y="1" width="76" height="32" />
            <text class="nonterminal" x="193" y="21">template</text></a><rect x="281" y="3" width="26" height="32" rx="10" />
         <rect class="terminal" x="279" y="1" width="26" height="32" rx="10" />
         <text class="terminal" x="289" y="21">)</text>
         <rect x="347" y="35" width="24" height="32" rx="10" />
         <rect class="terminal" x="345" y="33" width="24" height="32" rx="10" />
         <text class="terminal" x="355" y="53">.</text>
         <rect x="391" y="35" width="80" height="32" rx="10" />
         <rect class="terminal" x="389" y="33" width="80" height="32" rx="10" />
         <text class="terminal" x="399" y="53">suchThat</text>
         <rect x="491" y="35" width="26" height="32" rx="10" />
         <rect class="terminal" x="489" y="33" width="26" height="32" rx="10" />
         <text class="terminal" x="499" y="53">(</text><a xmlns:xlink="http://www.w3.org/1999/xlink" xlink:title="condition" xlink:href="#condition">
            <rect x="537" y="35" width="78" height="32" />
            <rect class="nonterminal" x="535" y="33" width="78" height="32" />
            <text class="nonterminal" x="545" y="53">condition</text></a><rect x="635" y="35" width="26" height="32" rx="10" />
         <rect class="terminal" x="633" y="33" width="26" height="32" rx="10" />
         <text class="terminal" x="643" y="53">)</text>
         <rect x="51" y="79" width="90" height="32" rx="10" />
         <rect class="terminal" x="49" y="77" width="90" height="32" rx="10" />
         <text class="terminal" x="59" y="97">j.notExists</text>
         <rect x="161" y="79" width="26" height="32" rx="10" />
         <rect class="terminal" x="159" y="77" width="26" height="32" rx="10" />
         <text class="terminal" x="169" y="97">(</text><a xmlns:xlink="http://www.w3.org/1999/xlink" xlink:title="template" xlink:href="#template">
            <rect x="207" y="79" width="76" height="32" />
            <rect class="nonterminal" x="205" y="77" width="76" height="32" />
            <text class="nonterminal" x="215" y="97">template</text></a><rect x="303" y="79" width="26" height="32" rx="10" />
         <rect class="terminal" x="301" y="77" width="26" height="32" rx="10" />
         <text class="terminal" x="311" y="97">)</text>
         <rect x="369" y="111" width="24" height="32" rx="10" />
         <rect class="terminal" x="367" y="109" width="24" height="32" rx="10" />
         <text class="terminal" x="377" y="129">.</text>
         <rect x="413" y="111" width="80" height="32" rx="10" />
         <rect class="terminal" x="411" y="109" width="80" height="32" rx="10" />
         <text class="terminal" x="421" y="129">suchThat</text>
         <rect x="513" y="111" width="26" height="32" rx="10" />
         <rect class="terminal" x="511" y="109" width="26" height="32" rx="10" />
         <text class="terminal" x="521" y="129">(</text><a xmlns:xlink="http://www.w3.org/1999/xlink" xlink:title="condition" xlink:href="#condition">
            <rect x="559" y="111" width="78" height="32" />
            <rect class="nonterminal" x="557" y="109" width="78" height="32" />
            <text class="nonterminal" x="567" y="129">condition</text></a><rect x="657" y="111" width="26" height="32" rx="10" />
         <rect class="terminal" x="655" y="109" width="26" height="32" rx="10" />
         <text class="terminal" x="665" y="129">)</text>
         <rect x="51" y="155" width="50" height="32" rx="10" />
         <rect class="terminal" x="49" y="153" width="50" height="32" rx="10" />
         <text class="terminal" x="59" y="173">j.not</text>
         <rect x="121" y="155" width="26" height="32" rx="10" />
         <rect class="terminal" x="119" y="153" width="26" height="32" rx="10" />
         <text class="terminal" x="129" y="173">(</text><a xmlns:xlink="http://www.w3.org/1999/xlink" xlink:title="condition" xlink:href="#condition">
            <rect x="167" y="155" width="78" height="32" />
            <rect class="nonterminal" x="165" y="153" width="78" height="32" />
            <text class="nonterminal" x="175" y="173">condition</text></a><rect x="265" y="155" width="26" height="32" rx="10" />
         <rect class="terminal" x="263" y="153" width="26" height="32" rx="10" />
         <text class="terminal" x="273" y="173">)</text>
         <path class="line" d="m 17 17 h 2 m 20 0 h 10 m 68 0 h 10 m 0 0 h 10 m 26 0 h 10 m 0 0 h 10 m 76 0 h 10 m 0 0 h 10 m 26 0 h 10 m 20 0 h 10 m 0 0 h 324 m -354 0 h 20 m 334 0 h 20 m -374 0 q 10 0 10 10 m 354 0 q 0 -10 10 -10 m -364 10 v 12 m 354 0 v -12 m -354 12 q 0 10 10 10 m 334 0 q 10 0 10 -10 m -344 10 h 10 m 24 0 h 10 m 0 0 h 10 m 80 0 h 10 m 0 0 h 10 m 26 0 h 10 m 0 0 h 10 m 78 0 h 10 m 0 0 h 10 m 26 0 h 10 m 20 -32 h 22 m -692 0 h 20 m 672 0 h 20 m -712 0 q 10 0 10 10 m 692 0 q 0 -10 10 -10 m -702 10 v 56 m 692 0 v -56 m -692 56 q 0 10 10 10 m 672 0 q 10 0 10 -10 m -682 10 h 10 m 90 0 h 10 m 0 0 h 10 m 26 0 h 10 m 0 0 h 10 m 76 0 h 10 m 0 0 h 10 m 26 0 h 10 m 20 0 h 10 m 0 0 h 324 m -354 0 h 20 m 334 0 h 20 m -374 0 q 10 0 10 10 m 354 0 q 0 -10 10 -10 m -364 10 v 12 m 354 0 v -12 m -354 12 q 0 10 10 10 m 334 0 q 10 0 10 -10 m -344 10 h 10 m 24 0 h 10 m 0 0 h 10 m 80 0 h 10 m 0 0 h 10 m 26 0 h 10 m 0 0 h 10 m 78 0 h 10 m 0 0 h 10 m 26 0 h 10 m -662 -42 v 20 m 692 0 v -20 m -692 20 v 56 m 692 0 v -56 m -692 56 q 0 10 10 10 m 672 0 q 10 0 10 -10 m -682 10 h 10 m 50 0 h 10 m 0 0 h 10 m 26 0 h 10 m 0 0 h 10 m 78 0 h 10 m 0 0 h 10 m 26 0 h 10 m 0 0 h 412 m 23 -152 h -3" />
         <polygon points="741,17 749,13 749,21" />
         <polygon points="741,17 733,13 733,21" /></svg>