<svg xmlns="http://www.w3.org/2000/svg" width="713" height="189">
         <defs>
            <style type="text/css">
    @namespace "http://www.w3.org/2000/svg";
    .line                 {fill: none; stroke: #332900; stroke-width: 1;}
    .bold-line            {stroke: #141000; shape-rendering: crispEdges; stroke-width: 2;}
    .thin-line            {stroke: #0F1400; shape-rendering: crispEdges}
    .filled               {fill: #332900; stroke: none;}
    text.terminal         {font-family: Verdana, Sans-serif;
                            font-size: 12px;
                            fill: #141000;
                            font-weight: bold;
                          }
    text.nonterminal      {font-family: Verdana, Sans-serif;
                            font-size: 12px;
                            fill: #141400;
                            font-weight: normal;
                          }
    text.regexp           {font-family: Verdana, Sans-serif;
                            font-size: 12px;
                            fill: #0F1400;
                            font-weight: normal;
                          }
    rect, circle, polygon {fill: #332900; stroke: #332900;}
    rect.terminal         {fill: #FFDB4D; stroke: #332900; stroke-width: 1;}
    rect.nonterminal      {fill: #F9FF4D; stroke: #332900; stroke-width: 1;}
    rect.text             {fill: none; stroke: none;}
    polygon.regexp        {fill: #D0FF4D; stroke: #332900; stroke-width: 1;}
  </style>
         </defs>
         <polygon points="9 17 1 13 1 21"/>
         <polygon points="17 17 9 13 9 21"/>
         <rect x="51" y="3" width="68" height="32" rx="10"/>
         <rect x="49" y="1" width="68" height="32" class="terminal" rx="10"/>
         <text class="terminal" x="59" y="21">j.exists</text>
         <rect x="139" y="3" width="26" height="32" rx="10"/>
         <rect x="137" y="1" width="26" height="32" class="terminal" rx="10"/>
         <text class="terminal" x="147" y="21">(</text><a xmlns:xlink="http://www.w3.org/1999/xlink" xlink:href="#template" xlink:title="template">
            <rect x="185" y="3" width="76" height="32"/>
            <rect x="183" y="1" width="76" height="32" class="nonterminal"/>
            <text class="nonterminal" x="193" y="21">template</text></a><rect x="281" y="3" width="26" height="32" rx="10"/>
         <rect x="279" y="1" width="26" height="32" class="terminal" rx="10"/>
         <text class="terminal" x="289" y="21">)</text>
         <rect x="347" y="35" width="86" height="32" rx="10"/>
         <rect x="345" y="33" width="86" height="32" class="terminal" rx="10"/>
         <text class="terminal" x="355" y="53">.suchThat</text>
         <rect x="453" y="35" width="26" height="32" rx="10"/>
         <rect x="451" y="33" width="26" height="32" class="terminal" rx="10"/>
         <text class="terminal" x="461" y="53">(</text><a xmlns:xlink="http://www.w3.org/1999/xlink" xlink:href="#condition" xlink:title="condition">
            <rect x="499" y="35" width="78" height="32"/>
            <rect x="497" y="33" width="78" height="32" class="nonterminal"/>
            <text class="nonterminal" x="507" y="53">condition</text></a><rect x="597" y="35" width="26" height="32" rx="10"/>
         <rect x="595" y="33" width="26" height="32" class="terminal" rx="10"/>
         <text class="terminal" x="605" y="53">)</text>
         <rect x="51" y="79" width="90" height="32" rx="10"/>
         <rect x="49" y="77" width="90" height="32" class="terminal" rx="10"/>
         <text class="terminal" x="59" y="97">j.notExists</text>
         <rect x="161" y="79" width="26" height="32" rx="10"/>
         <rect x="159" y="77" width="26" height="32" class="terminal" rx="10"/>
         <text class="terminal" x="169" y="97">(</text><a xmlns:xlink="http://www.w3.org/1999/xlink" xlink:href="#template" xlink:title="template">
            <rect x="207" y="79" width="76" height="32"/>
            <rect x="205" y="77" width="76" height="32" class="nonterminal"/>
            <text class="nonterminal" x="215" y="97">template</text></a><rect x="303" y="79" width="26" height="32" rx="10"/>
         <rect x="301" y="77" width="26" height="32" class="terminal" rx="10"/>
         <text class="terminal" x="311" y="97">)</text>
         <rect x="369" y="111" width="86" height="32" rx="10"/>
         <rect x="367" y="109" width="86" height="32" class="terminal" rx="10"/>
         <text class="terminal" x="377" y="129">.suchThat</text>
         <rect x="475" y="111" width="26" height="32" rx="10"/>
         <rect x="473" y="109" width="26" height="32" class="terminal" rx="10"/>
         <text class="terminal" x="483" y="129">(</text><a xmlns:xlink="http://www.w3.org/1999/xlink" xlink:href="#condition" xlink:title="condition">
            <rect x="521" y="111" width="78" height="32"/>
            <rect x="519" y="109" width="78" height="32" class="nonterminal"/>
            <text class="nonterminal" x="529" y="129">condition</text></a><rect x="619" y="111" width="26" height="32" rx="10"/>
         <rect x="617" y="109" width="26" height="32" class="terminal" rx="10"/>
         <text class="terminal" x="627" y="129">)</text>
         <rect x="51" y="155" width="50" height="32" rx="10"/>
         <rect x="49" y="153" width="50" height="32" class="terminal" rx="10"/>
         <text class="terminal" x="59" y="173">j.not</text>
         <rect x="121" y="155" width="26" height="32" rx="10"/>
         <rect x="119" y="153" width="26" height="32" class="terminal" rx="10"/>
         <text class="terminal" x="129" y="173">(</text><a xmlns:xlink="http://www.w3.org/1999/xlink" xlink:href="#condition" xlink:title="condition">
            <rect x="167" y="155" width="78" height="32"/>
            <rect x="165" y="153" width="78" height="32" class="nonterminal"/>
            <text class="nonterminal" x="175" y="173">condition</text></a><rect x="265" y="155" width="26" height="32" rx="10"/>
         <rect x="263" y="153" width="26" height="32" class="terminal" rx="10"/>
         <text class="terminal" x="273" y="173">)</text>
         <path xmlns:svg="http://www.w3.org/2000/svg" class="line" d="m17 17 h2 m20 0 h10 m68 0 h10 m0 0 h10 m26 0 h10 m0 0 h10 m76 0 h10 m0 0 h10 m26 0 h10 m20 0 h10 m0 0 h286 m-316 0 h20 m296 0 h20 m-336 0 q10 0 10 10 m316 0 q0 -10 10 -10 m-326 10 v12 m316 0 v-12 m-316 12 q0 10 10 10 m296 0 q10 0 10 -10 m-306 10 h10 m86 0 h10 m0 0 h10 m26 0 h10 m0 0 h10 m78 0 h10 m0 0 h10 m26 0 h10 m20 -32 h22 m-654 0 h20 m634 0 h20 m-674 0 q10 0 10 10 m654 0 q0 -10 10 -10 m-664 10 v56 m654 0 v-56 m-654 56 q0 10 10 10 m634 0 q10 0 10 -10 m-644 10 h10 m90 0 h10 m0 0 h10 m26 0 h10 m0 0 h10 m76 0 h10 m0 0 h10 m26 0 h10 m20 0 h10 m0 0 h286 m-316 0 h20 m296 0 h20 m-336 0 q10 0 10 10 m316 0 q0 -10 10 -10 m-326 10 v12 m316 0 v-12 m-316 12 q0 10 10 10 m296 0 q10 0 10 -10 m-306 10 h10 m86 0 h10 m0 0 h10 m26 0 h10 m0 0 h10 m78 0 h10 m0 0 h10 m26 0 h10 m-624 -42 v20 m654 0 v-20 m-654 20 v56 m654 0 v-56 m-654 56 q0 10 10 10 m634 0 q10 0 10 -10 m-644 10 h10 m50 0 h10 m0 0 h10 m26 0 h10 m0 0 h10 m78 0 h10 m0 0 h10 m26 0 h10 m0 0 h374 m23 -152 h-3"/>
         <polygon points="703 17 711 13 711 21"/>
         <polygon points="703 17 695 13 695 21"/></svg>