<svg xmlns="http://www.w3.org/2000/svg" width="357" height="81">
         <defs>
            <style type="text/css">
    @namespace "http://www.w3.org/2000/svg";
    .line                 {fill: none; stroke: #332900; stroke-width: 1;}
    .bold-line            {stroke: #141000; shape-rendering: crispEdges; stroke-width: 2;}
    .thin-line            {stroke: #0F1400; shape-rendering: crispEdges}
    .filled               {fill: #332900; stroke: none;}
    text.terminal         {font-family: Verdana, Sans-serif;
                            font-size: 12px;
                            fill: #141000;
                            font-weight: bold;
                          }
    text.nonterminal      {font-family: Verdana, Sans-serif;
                            font-size: 12px;
                            fill: #141400;
                            font-weight: normal;
                          }
    text.regexp           {font-family: Verdana, Sans-serif;
                            font-size: 12px;
                            fill: #0F1400;
                            font-weight: normal;
                          }
    rect, circle, polygon {fill: #332900; stroke: #332900;}
    rect.terminal         {fill: #FFDB4D; stroke: #332900; stroke-width: 1;}
    rect.nonterminal      {fill: #F9FF4D; stroke: #332900; stroke-width: 1;}
    rect.text             {fill: none; stroke: none;}
    polygon.regexp        {fill: #D0FF4D; stroke: #332900; stroke-width: 1;}
  </style>
         </defs>
         <polygon points="9,61 1,57 1,65" />
         <polygon points="17,61 9,57 9,65" />
         <rect x="31" y="47" width="48" height="32" rx="10" />
         <rect class="terminal" x="29" y="45" width="48" height="32" rx="10" />
         <text class="terminal" x="39" y="65">j.for</text>
         <rect x="119" y="47" width="26" height="32" rx="10" />
         <rect class="terminal" x="117" y="45" width="26" height="32" rx="10" />
         <text class="terminal" x="127" y="65">(</text><a xmlns:xlink="http://www.w3.org/1999/xlink" xlink:title="specification" xlink:href="#specification">
            <rect x="165" y="47" width="98" height="32" />
            <rect class="nonterminal" x="163" y="45" width="98" height="32" />
            <text class="nonterminal" x="173" y="65">specification</text></a><rect x="283" y="47" width="26" height="32" rx="10" />
         <rect class="terminal" x="281" y="45" width="26" height="32" rx="10" />
         <text class="terminal" x="291" y="65">)</text>
         <rect x="119" y="3" width="50" height="32" rx="10" />
         <rect class="terminal" x="117" y="1" width="50" height="32" rx="10" />
         <text class="terminal" x="127" y="21">then</text>
         <rect x="189" y="3" width="24" height="32" rx="10" />
         <rect class="terminal" x="187" y="1" width="24" height="32" rx="10" />
         <text class="terminal" x="197" y="21">.</text>
         <path class="line" d="m 17 61 h 2 m 0 0 h 10 m 48 0 h 10 m 20 0 h 10 m 26 0 h 10 m 0 0 h 10 m 98 0 h 10 m 0 0 h 10 m 26 0 h 10 m -230 0 l 20 0 m -1 0 q -9 0 -9 -10 l 0 -24 q 0 -10 10 -10 m 210 44 l 20 0 m -20 0 q 10 0 10 -10 l 0 -24 q 0 -10 -10 -10 m -210 0 h 10 m 50 0 h 10 m 0 0 h 10 m 24 0 h 10 m 0 0 h 96 m 23 44 h -3" />
         <polygon points="347,61 355,57 355,65" />
         <polygon points="347,61 339,57 339,65" /></svg>