<svg xmlns="http://www.w3.org/2000/svg" width="483" height="37">
         <defs>
            <style type="text/css">
    @namespace "http://www.w3.org/2000/svg";
    .line                 {fill: none; stroke: #332900; stroke-width: 1;}
    .bold-line            {stroke: #141000; shape-rendering: crispEdges; stroke-width: 2;}
    .thin-line            {stroke: #0F1400; shape-rendering: crispEdges}
    .filled               {fill: #332900; stroke: none;}
    text.terminal         {font-family: Verdana, Sans-serif;
                            font-size: 12px;
                            fill: #141000;
                            font-weight: bold;
                          }
    text.nonterminal      {font-family: Verdana, Sans-serif;
                            font-size: 12px;
                            fill: #141400;
                            font-weight: normal;
                          }
    text.regexp           {font-family: Verdana, Sans-serif;
                            font-size: 12px;
                            fill: #0F1400;
                            font-weight: normal;
                          }
    rect, circle, polygon {fill: #332900; stroke: #332900;}
    rect.terminal         {fill: #FFDB4D; stroke: #332900; stroke-width: 1;}
    rect.nonterminal      {fill: #F9FF4D; stroke: #332900; stroke-width: 1;}
    rect.text             {fill: none; stroke: none;}
    polygon.regexp        {fill: #D0FF4D; stroke: #332900; stroke-width: 1;}
  </style>
         </defs>
         <polygon points="9 17 1 13 1 21"/>
         <polygon points="17 17 9 13 9 21"/>
         <rect x="31" y="3" width="68" height="32" rx="10"/>
         <rect x="29" y="1" width="68" height="32" class="terminal" rx="10"/>
         <text class="terminal" x="39" y="21">j.query</text>
         <rect x="119" y="3" width="26" height="32" rx="10"/>
         <rect x="117" y="1" width="26" height="32" class="terminal" rx="10"/>
         <text class="terminal" x="127" y="21">(</text><a xmlns:xlink="http://www.w3.org/1999/xlink" xlink:href="#starterFact" xlink:title="starterFact">
            <rect x="165" y="3" width="88" height="32"/>
            <rect x="163" y="1" width="88" height="32" class="nonterminal"/>
            <text class="nonterminal" x="173" y="21">starterFact</text></a><rect x="273" y="3" width="24" height="32" rx="10"/>
         <rect x="271" y="1" width="24" height="32" class="terminal" rx="10"/>
         <text class="terminal" x="281" y="21">,</text><a xmlns:xlink="http://www.w3.org/1999/xlink" xlink:href="#preposition" xlink:title="preposition">
            <rect x="317" y="3" width="92" height="32"/>
            <rect x="315" y="1" width="92" height="32" class="nonterminal"/>
            <text class="nonterminal" x="325" y="21">preposition</text></a><rect x="429" y="3" width="26" height="32" rx="10"/>
         <rect x="427" y="1" width="26" height="32" class="terminal" rx="10"/>
         <text class="terminal" x="437" y="21">)</text>
         <path xmlns:svg="http://www.w3.org/2000/svg" class="line" d="m17 17 h2 m0 0 h10 m68 0 h10 m0 0 h10 m26 0 h10 m0 0 h10 m88 0 h10 m0 0 h10 m24 0 h10 m0 0 h10 m92 0 h10 m0 0 h10 m26 0 h10 m3 0 h-3"/>
         <polygon points="473 17 481 13 481 21"/>
         <polygon points="473 17 465 13 465 21"/></svg>