<svg xmlns="http://www.w3.org/2000/svg" width="691" height="69">
         <defs>
            <style type="text/css">
    @namespace "http://www.w3.org/2000/svg";
    .line                 {fill: none; stroke: #332900; stroke-width: 1;}
    .bold-line            {stroke: #141000; shape-rendering: crispEdges; stroke-width: 2;}
    .thin-line            {stroke: #0F1400; shape-rendering: crispEdges}
    .filled               {fill: #332900; stroke: none;}
    text.terminal         {font-family: Verdana, Sans-serif;
                            font-size: 12px;
                            fill: #141000;
                            font-weight: bold;
                          }
    text.nonterminal      {font-family: Verdana, Sans-serif;
                            font-size: 12px;
                            fill: #141400;
                            font-weight: normal;
                          }
    text.regexp           {font-family: Verdana, Sans-serif;
                            font-size: 12px;
                            fill: #0F1400;
                            font-weight: normal;
                          }
    rect, circle, polygon {fill: #332900; stroke: #332900;}
    rect.terminal         {fill: #FFDB4D; stroke: #332900; stroke-width: 1;}
    rect.nonterminal      {fill: #F9FF4D; stroke: #332900; stroke-width: 1;}
    rect.text             {fill: none; stroke: none;}
    polygon.regexp        {fill: #D0FF4D; stroke: #332900; stroke-width: 1;}
  </style>
         </defs>
         <polygon points="9,17 1,13 1,21" />
         <polygon points="17,17 9,13 9,21" />
         <rect x="31" y="3" width="70" height="32" rx="10" />
         <rect class="terminal" x="29" y="1" width="70" height="32" rx="10" />
         <text class="terminal" x="39" y="21">j.match</text>
         <rect x="121" y="3" width="26" height="32" rx="10" />
         <rect class="terminal" x="119" y="1" width="26" height="32" rx="10" />
         <text class="terminal" x="129" y="21">(</text><a xmlns:xlink="http://www.w3.org/1999/xlink" xlink:title="template" xlink:href="#template">
            <rect x="167" y="3" width="76" height="32" />
            <rect class="nonterminal" x="165" y="1" width="76" height="32" />
            <text class="nonterminal" x="175" y="21">template</text></a><rect x="263" y="3" width="26" height="32" rx="10" />
         <rect class="terminal" x="261" y="1" width="26" height="32" rx="10" />
         <text class="terminal" x="271" y="21">)</text>
         <rect x="329" y="35" width="24" height="32" rx="10" />
         <rect class="terminal" x="327" y="33" width="24" height="32" rx="10" />
         <text class="terminal" x="337" y="53">.</text>
         <rect x="373" y="35" width="80" height="32" rx="10" />
         <rect class="terminal" x="371" y="33" width="80" height="32" rx="10" />
         <text class="terminal" x="381" y="53">suchThat</text>
         <rect x="473" y="35" width="26" height="32" rx="10" />
         <rect class="terminal" x="471" y="33" width="26" height="32" rx="10" />
         <text class="terminal" x="481" y="53">(</text><a xmlns:xlink="http://www.w3.org/1999/xlink" xlink:title="condition" xlink:href="#condition">
            <rect x="519" y="35" width="78" height="32" />
            <rect class="nonterminal" x="517" y="33" width="78" height="32" />
            <text class="nonterminal" x="527" y="53">condition</text></a><rect x="617" y="35" width="26" height="32" rx="10" />
         <rect class="terminal" x="615" y="33" width="26" height="32" rx="10" />
         <text class="terminal" x="625" y="53">)</text>
         <path class="line" d="m 17 17 h 2 m 0 0 h 10 m 70 0 h 10 m 0 0 h 10 m 26 0 h 10 m 0 0 h 10 m 76 0 h 10 m 0 0 h 10 m 26 0 h 10 m 20 0 h 10 m 0 0 h 324 m -354 0 h 20 m 334 0 h 20 m -374 0 q 10 0 10 10 m 354 0 q 0 -10 10 -10 m -364 10 v 12 m 354 0 v -12 m -354 12 q 0 10 10 10 m 334 0 q 10 0 10 -10 m -344 10 h 10 m 24 0 h 10 m 0 0 h 10 m 80 0 h 10 m 0 0 h 10 m 26 0 h 10 m 0 0 h 10 m 78 0 h 10 m 0 0 h 10 m 26 0 h 10 m 23 -32 h -3" />
         <polygon points="681,17 689,13 689,21" />
         <polygon points="681,17 673,13 673,21" /></svg>