<svg xmlns="http://www.w3.org/2000/svg" width="653" height="69">
         <defs>
            <style type="text/css">
    @namespace "http://www.w3.org/2000/svg";
    .line                 {fill: none; stroke: #332900; stroke-width: 1;}
    .bold-line            {stroke: #141000; shape-rendering: crispEdges; stroke-width: 2;}
    .thin-line            {stroke: #0F1400; shape-rendering: crispEdges}
    .filled               {fill: #332900; stroke: none;}
    text.terminal         {font-family: Verdana, Sans-serif;
                            font-size: 12px;
                            fill: #141000;
                            font-weight: bold;
                          }
    text.nonterminal      {font-family: Verdana, Sans-serif;
                            font-size: 12px;
                            fill: #141400;
                            font-weight: normal;
                          }
    text.regexp           {font-family: Verdana, Sans-serif;
                            font-size: 12px;
                            fill: #0F1400;
                            font-weight: normal;
                          }
    rect, circle, polygon {fill: #332900; stroke: #332900;}
    rect.terminal         {fill: #FFDB4D; stroke: #332900; stroke-width: 1;}
    rect.nonterminal      {fill: #F9FF4D; stroke: #332900; stroke-width: 1;}
    rect.text             {fill: none; stroke: none;}
    polygon.regexp        {fill: #D0FF4D; stroke: #332900; stroke-width: 1;}
  </style>
         </defs>
         <polygon points="9 17 1 13 1 21"/>
         <polygon points="17 17 9 13 9 21"/>
         <rect x="31" y="3" width="70" height="32" rx="10"/>
         <rect x="29" y="1" width="70" height="32" class="terminal" rx="10"/>
         <text class="terminal" x="39" y="21">j.match</text>
         <rect x="121" y="3" width="26" height="32" rx="10"/>
         <rect x="119" y="1" width="26" height="32" class="terminal" rx="10"/>
         <text class="terminal" x="129" y="21">(</text><a xmlns:xlink="http://www.w3.org/1999/xlink" xlink:href="#template" xlink:title="template">
            <rect x="167" y="3" width="76" height="32"/>
            <rect x="165" y="1" width="76" height="32" class="nonterminal"/>
            <text class="nonterminal" x="175" y="21">template</text></a><rect x="263" y="3" width="26" height="32" rx="10"/>
         <rect x="261" y="1" width="26" height="32" class="terminal" rx="10"/>
         <text class="terminal" x="271" y="21">)</text>
         <rect x="329" y="35" width="86" height="32" rx="10"/>
         <rect x="327" y="33" width="86" height="32" class="terminal" rx="10"/>
         <text class="terminal" x="337" y="53">.suchThat</text>
         <rect x="435" y="35" width="26" height="32" rx="10"/>
         <rect x="433" y="33" width="26" height="32" class="terminal" rx="10"/>
         <text class="terminal" x="443" y="53">(</text><a xmlns:xlink="http://www.w3.org/1999/xlink" xlink:href="#condition" xlink:title="condition">
            <rect x="481" y="35" width="78" height="32"/>
            <rect x="479" y="33" width="78" height="32" class="nonterminal"/>
            <text class="nonterminal" x="489" y="53">condition</text></a><rect x="579" y="35" width="26" height="32" rx="10"/>
         <rect x="577" y="33" width="26" height="32" class="terminal" rx="10"/>
         <text class="terminal" x="587" y="53">)</text>
         <path xmlns:svg="http://www.w3.org/2000/svg" class="line" d="m17 17 h2 m0 0 h10 m70 0 h10 m0 0 h10 m26 0 h10 m0 0 h10 m76 0 h10 m0 0 h10 m26 0 h10 m20 0 h10 m0 0 h286 m-316 0 h20 m296 0 h20 m-336 0 q10 0 10 10 m316 0 q0 -10 10 -10 m-326 10 v12 m316 0 v-12 m-316 12 q0 10 10 10 m296 0 q10 0 10 -10 m-306 10 h10 m86 0 h10 m0 0 h10 m26 0 h10 m0 0 h10 m78 0 h10 m0 0 h10 m26 0 h10 m23 -32 h-3"/>
         <polygon points="643 17 651 13 651 21"/>
         <polygon points="643 17 635 13 635 21"/></svg>